<svg width="23" height="24" viewBox="0 0 23 24" fill="none" xmlns="http://www.w3.org/2000/svg">
<g id="Layer 2">
<g id="close">
<path id="Vector" d="M12.8513 12L16.9721 7.71C17.1525 7.5217 17.2539 7.2663 17.2539 7C17.2539 6.7337 17.1525 6.4783 16.9721 6.29C16.7916 6.1017 16.5469 5.99591 16.2917 5.99591C16.0365 5.99591 15.7917 6.1017 15.6113 6.29L11.5 10.59L7.38875 6.29C7.20829 6.1017 6.96354 5.99591 6.70834 5.99591C6.45313 5.99591 6.20838 6.1017 6.02792 6.29C5.84746 6.4783 5.74608 6.7337 5.74608 7C5.74608 7.2663 5.84746 7.5217 6.02792 7.71L10.1488 12L6.02792 16.29C5.9381 16.383 5.8668 16.4936 5.81815 16.6154C5.7695 16.7373 5.74445 16.868 5.74445 17C5.74445 17.132 5.7695 17.2627 5.81815 17.3846C5.8668 17.5064 5.9381 17.617 6.02792 17.71C6.11701 17.8037 6.223 17.8781 6.33978 17.9289C6.45656 17.9797 6.58182 18.0058 6.70834 18.0058C6.83485 18.0058 6.96011 17.9797 7.07689 17.9289C7.19367 17.8781 7.29966 17.8037 7.38875 17.71L11.5 13.41L15.6113 17.71C15.7003 17.8037 15.8063 17.8781 15.9231 17.9289C16.0399 17.9797 16.1652 18.0058 16.2917 18.0058C16.4182 18.0058 16.5434 17.9797 16.6602 17.9289C16.777 17.8781 16.883 17.8037 16.9721 17.71C17.0619 17.617 17.1332 17.5064 17.1819 17.3846C17.2305 17.2627 17.2556 17.132 17.2556 17C17.2556 16.868 17.2305 16.7373 17.1819 16.6154C17.1332 16.4936 17.0619 16.383 16.9721 16.29L12.8513 12Z" fill="black"/>
</g>
</g>
</svg>
